<?xml version="1.0" encoding="utf-8"?>
<!-- Generator: Adobe Illustrator 25.4.1, SVG Export Plug-In . SVG Version: 6.00 Build 0)  -->
<svg version="1.1" id="Layer_1" xmlns="http://www.w3.org/2000/svg" xmlns:xlink="http://www.w3.org/1999/xlink" x="0px" y="0px"
	 viewBox="0 0 32 32" style="enable-background:new 0 0 32 32;" xml:space="preserve">
<path d="M28.5,28c-0.6,0.5-1.5,0.9-2.5,0.9c-3.1,0.1-6.1-0.1-9.3-0.4c-1.4-0.1-2.9,0.1-4.4,0.1c-2.2,0.1-4.3,0.2-6.5,0.1
	c-1.1,0-1.9-0.6-2.7-1.6c-0.1-0.2-0.2-0.4-0.1-0.6c0.9-3.9,0.4-7.9,0.4-11.8c0-2.9-0.3-5.8-0.5-8.7c0-1.1,0.4-1.7,1.5-2
	C6.2,3.2,8,3.3,9.9,3.4c2.3,0,4.4,0.1,6.7,0.1c2.6,0,5.2-0.2,7.8-0.3c0.3,0,0.8,0,1.1,0c2,0.2,3.1,1.2,3.5,3.6C29,9.4,29,12.2,29,15
	c0,1.8-0.1,3.7-0.2,5.5s-0.3,3.8-0.4,5.6C28.3,26.7,28.4,27.3,28.5,28z M25.8,5.1C19.1,6.5,12.7,5.4,6.1,5.6
	c0.2,6.9,0.4,13.7,0.6,20.5c1.3,0.4,2.5,0.2,3.7,0.1c2.3-0.3,4.5-0.2,6.8,0c2.9,0.3,5.8,0.6,8.8,0.1c0.1-1.4,0.3-2.9,0.3-4.3
	c0-1.1-0.2-2.2-0.2-3.2c0-2.4,0.1-4.6,0-7C26,9.7,25.9,7.6,25.8,5.1z"/>
</svg>
